<svg width="29" height="28" viewBox="0 0 29 28" fill="none" xmlns="http://www.w3.org/2000/svg">
<path d="M14.3659 1.93876e-05C10.9553 -0.00320751 7.65509 1.2082 5.05658 3.41713C2.45807 5.62606 0.731098 8.68814 0.185124 12.0546C-0.36084 15.4212 0.309876 18.8722 2.07709 21.789C3.84431 24.7061 6.59252 26.8984 9.82925 27.9732C10.5456 28.098 10.7728 27.6774 10.7728 27.298C10.7728 26.9547 10.7802 26.0037 10.7728 24.8019C6.7791 25.6681 5.95414 22.9111 5.95414 22.9111C5.69085 22.0438 5.12599 21.2993 4.36168 20.812C3.05874 19.921 4.45902 19.9383 4.45902 19.9383C4.91393 20.0008 5.34855 20.1664 5.72967 20.4225C6.11079 20.6786 6.42833 21.0185 6.65803 21.416C6.85233 21.7701 7.11492 22.0821 7.43058 22.3341C7.74624 22.586 8.10872 22.7728 8.49706 22.8838C8.88539 22.9947 9.29187 23.0275 9.69299 22.9805C10.0941 22.9333 10.4819 22.8071 10.8339 22.6091C10.9001 21.8836 11.2232 21.2056 11.745 20.6972C8.55876 20.3328 5.20783 19.1022 5.20783 13.6009C5.18761 12.1748 5.7172 10.7956 6.68673 9.74955C6.2474 8.51213 6.29741 7.1536 6.82652 5.95182C6.82652 5.95182 8.03335 5.56619 10.7728 7.42449C13.1255 6.77886 15.6087 6.77886 17.9613 7.42449C20.707 5.56743 21.9039 5.95182 21.9039 5.95182C22.4331 7.15343 22.4841 8.51171 22.0461 9.74955C23.0159 10.7963 23.5448 12.1767 23.5225 13.6034C23.5225 19.1197 20.1666 20.3316 16.9692 20.6847C17.3127 21.0297 17.578 21.4445 17.7474 21.901C17.9169 22.3575 17.9864 22.8449 17.9514 23.3305V27.3042C17.9514 27.6873 18.1835 28.1117 18.9124 27.9732C22.1499 26.8981 24.8986 24.705 26.6658 21.7869C28.4329 18.869 29.103 15.4169 28.5557 12.0498C28.0085 8.68254 26.2797 5.62038 23.6793 3.41225C21.079 1.20412 17.7772 -0.00558523 14.3659 1.93876e-05Z" fill="#7F8596"/>
</svg>
