<svg width="26" height="28" viewBox="0 0 26 28" fill="none" xmlns="http://www.w3.org/2000/svg">
<path fill-rule="evenodd" clip-rule="evenodd" d="M4.76451 4.72649C5.28478 4.1902 5.57093 3.47383 5.56493 2.72944C5.53806 2.00689 5.23617 1.32191 4.72102 0.814559C4.20586 0.307211 3.51634 0.015829 2.79347 0C2.06841 0.0155302 1.37638 0.306167 0.857662 0.812998C0.338941 1.31983 0.0323367 2.00493 0 2.72944C0.010284 3.47312 0.305953 4.18442 0.825875 4.71625C1.3458 5.24809 2.05021 5.55981 2.79347 5.58694C3.53784 5.56944 4.24561 5.26047 4.76451 4.72649ZM2.2772 9.26487C1.10258 9.23886 0.302159 9.22085 0.302159 10.6576V26.65C0.302159 28.0568 1.06656 28.0287 2.16714 27.9867C2.36725 27.9787 2.57736 27.9707 2.79547 27.9707C3.01559 27.9707 3.2257 27.9787 3.4238 27.9867C4.52038 28.0267 5.26877 28.0568 5.26877 26.65V10.6596C5.26877 9.22285 4.48436 9.23886 3.31574 9.26687C2.96961 9.27481 2.62333 9.27281 2.2772 9.26487ZM10.4495 9.29489C9.91722 9.40094 9.57504 9.74112 9.57504 10.6576V26.65C9.57504 28.0568 10.3094 28.0287 11.412 27.9867C11.6121 27.9787 11.8262 27.9707 12.0483 27.9707C12.2725 27.9707 12.4846 27.9787 12.6867 27.9867C13.7953 28.0267 14.5437 28.0568 14.5437 26.65V18.1215C14.501 17.6856 14.5514 17.2455 14.6917 16.8306C14.8319 16.4156 15.0587 16.0352 15.3571 15.7145C15.6555 15.3938 16.0186 15.1401 16.4224 14.9704C16.8262 14.8006 17.2614 14.7186 17.6993 14.7297C18.1393 14.7034 18.5798 14.7721 18.9909 14.9313C19.402 15.0904 19.7739 15.3362 20.0815 15.6519C20.3891 15.9677 20.6251 16.346 20.7734 16.7611C20.9217 17.1762 20.9789 17.6183 20.941 18.0575V26.584C20.941 27.9927 21.6734 27.9647 22.776 27.9227C22.9761 27.9147 23.1902 27.9067 23.4123 27.9067C23.6364 27.9067 23.8485 27.9147 24.0507 27.9227C25.1532 27.9627 25.8856 27.9927 25.8856 26.586V15.6682C25.9266 14.7719 25.7785 13.8769 25.4509 13.0416C25.1232 12.2062 24.6234 11.4492 23.9839 10.8197C23.3445 10.1903 22.5797 9.70244 21.7393 9.38802C20.8988 9.07359 20.0017 8.93959 19.1061 8.99473C18.1939 8.91174 17.2757 9.0643 16.4393 9.43779C15.603 9.81128 14.8766 10.3932 14.3295 11.1279C14.3515 10.3394 14.0954 9.29489 13.4571 9.29489C13.273 9.29489 12.9908 9.28488 12.6707 9.27488C11.8702 9.25087 10.8297 9.21885 10.4495 9.29489Z" fill="#7F8596"/>
</svg>
