<svg width="20" height="19" viewBox="0 0 20 19" fill="none" xmlns="http://www.w3.org/2000/svg">
<path fill-rule="evenodd" clip-rule="evenodd" d="M4.76694 1.02073C4.76694 0.456997 4.30996 0 3.74621 0C3.18248 0 2.72548 0.456997 2.72548 1.02073V2.01505C2.72548 2.57879 3.18248 3.03578 3.74621 3.03578C4.30996 3.03578 4.76694 2.57879 4.76694 2.01505V1.02073ZM14.9214 9.81343V6.41099H15.6019C16.053 6.41099 16.4858 6.59023 16.8048 6.90927C17.1238 7.22831 17.3031 7.66102 17.3031 8.11221C17.3031 8.5634 17.1238 8.99611 16.8048 9.31515C16.4858 9.63419 16.053 9.81343 15.6019 9.81343H14.9214ZM14.9214 11.8549L15.6019 11.8549C16.5946 11.8549 17.5464 11.4606 18.2483 10.7587C18.9503 10.0568 19.3445 9.10484 19.3445 8.11221C19.3445 7.11958 18.9503 6.16762 18.2483 5.46574C17.5464 4.76385 16.5946 4.36953 15.6019 4.36953H12.8799L12.8743 4.36954H2.67262C2.31167 4.36954 1.96549 4.51294 1.71027 4.76816C1.45503 5.0234 1.31164 5.36956 1.31164 5.73052V11.8549C1.31164 12.7573 1.67011 13.6227 2.3082 14.2608C2.94627 14.8988 3.81169 15.2573 4.71408 15.2573H11.519C12.4213 15.2573 13.2867 14.8988 13.9248 14.2608C14.5629 13.6227 14.9214 12.7573 14.9214 11.8549ZM1.38458 16.9585C0.820843 16.9585 0.363846 17.4156 0.363846 17.9793C0.363846 18.543 0.820843 19 1.38458 19H18.3238C18.8875 19 19.3445 18.543 19.3445 17.9793C19.3445 17.4156 18.8875 16.9585 18.3238 16.9585H1.38458ZM11.8793 0C12.443 0 12.9 0.456997 12.9 1.02073V2.01505C12.9 2.57879 12.443 3.03578 11.8793 3.03578C11.3155 3.03578 10.8585 2.57879 10.8585 2.01505V1.02073C10.8585 0.456997 11.3155 0 11.8793 0ZM8.83347 1.02073C8.83347 0.456997 8.37646 0 7.81274 0C7.24901 0 6.79201 0.456997 6.79201 1.02073V2.01505C6.79201 2.57879 7.24901 3.03578 7.81274 3.03578C8.37646 3.03578 8.83347 2.57879 8.83347 2.01505V1.02073Z" fill="#343434"/>
</svg>
