<svg width="27" height="28" viewBox="0 0 27 28" fill="none" xmlns="http://www.w3.org/2000/svg">
<path d="M21.8364 19.7912C20.7681 19.7912 19.8123 20.2129 19.0813 20.8735L9.05924 15.0402C9.12953 14.7169 9.18575 14.3936 9.18575 14.0562C9.18575 13.7189 9.12953 13.3956 9.05924 13.0723L18.9689 7.29518C19.7279 7.99799 20.7259 8.43373 21.8364 8.43373C24.1697 8.43373 26.0532 6.5502 26.0532 4.21687C26.0532 1.88353 24.1697 0 21.8364 0C19.503 0 17.6195 1.88353 17.6195 4.21687C17.6195 4.55422 17.6757 4.87751 17.746 5.2008L7.83635 10.9779C7.07732 10.2751 6.07932 9.83936 4.96888 9.83936C2.63555 9.83936 0.752014 11.7229 0.752014 14.0562C0.752014 16.3896 2.63555 18.2731 4.96888 18.2731C6.07932 18.2731 7.07732 17.8373 7.83635 17.1345L17.8444 22.9819C17.7741 23.2771 17.7319 23.5863 17.7319 23.8956C17.7319 26.1586 19.5733 28 21.8364 28C24.0994 28 25.9408 26.1586 25.9408 23.8956C25.9408 21.6325 24.0994 19.7912 21.8364 19.7912Z" fill="#7F8596"/>
</svg>
