<svg width="27" height="28" viewBox="0 0 27 28" fill="none" xmlns="http://www.w3.org/2000/svg">
<path d="M19.7979 17.4222H18.5467L18.1033 16.9946C20.0038 14.7774 20.9857 11.7524 20.4472 8.53741C19.7029 4.13458 16.0286 0.618653 11.5941 0.0801783C4.89478 -0.743372 -0.743373 4.89478 0.0801784 11.594C0.618654 16.0285 4.13458 19.7028 8.53741 20.4472C11.7524 20.9857 14.7774 20.0038 16.9946 18.1033L17.4223 18.5467V19.7979L24.1532 26.5288C24.8025 27.1781 25.8637 27.1781 26.513 26.5288C27.1623 25.8795 27.1623 24.8184 26.513 24.169L19.7979 17.4222ZM10.2954 17.4222C6.35184 17.4222 3.16849 14.2389 3.16849 10.2954C3.16849 6.35183 6.35184 3.16849 10.2954 3.16849C14.2389 3.16849 17.4223 6.35183 17.4223 10.2954C17.4223 14.2389 14.2389 17.4222 10.2954 17.4222Z" fill="#343434"/>
</svg>
