<svg width="36" height="28" viewBox="0 0 36 28" fill="none" xmlns="http://www.w3.org/2000/svg">
<path d="M0.0532227 25.1701C25.1373 34.906 32.2383 17.0975 32.0242 8.30493C34.0617 7.74909 35.3895 6.36225 35.3895 4.93957C33.7069 5.82374 32.8273 5.57246 31.986 4.93957C33.7978 3.70562 33.7069 1.94649 33.7069 0.732879C32.8597 1.17693 31.2918 2.27467 29.5001 2.41558C28.3022 0.542432 25.2934 -0.949771 21.0867 0.732895C16.88 2.41556 16.0387 6.90272 16.88 9.1463C11.4954 9.1463 5.10127 3.53736 2.57725 0.732895C-0.447688 5.04917 3.37922 9.33053 5.10127 10.829C3.95326 11.1722 2.57725 10.829 1.7359 9.98764C1.7359 14.7918 5.94261 16.7183 7.62529 17.5598H4.25993C4.25993 20.9251 8.18617 22.3273 10.1493 22.6077C8.80316 23.9539 3.37972 25.1701 0.0532227 25.1701Z" fill="#7F8596"/>
</svg>
