<svg width="323" height="88" viewBox="0 0 323 88" fill="none" xmlns="http://www.w3.org/2000/svg">
<path d="M45.1003 31.98V35.328H38.4403V57H34.3363V35.328H27.6403V31.98H45.1003ZM67.4366 46.596C67.4366 47.34 67.3886 48.012 67.2926 48.612H52.1366C52.2566 50.196 52.8446 51.468 53.9006 52.428C54.9566 53.388 56.2526 53.868 57.7886 53.868C59.9966 53.868 61.5566 52.944 62.4686 51.096H66.8966C66.2966 52.92 65.2046 54.42 63.6206 55.596C62.0606 56.748 60.1166 57.324 57.7886 57.324C55.8926 57.324 54.1886 56.904 52.6766 56.064C51.1886 55.2 50.0126 54 49.1486 52.464C48.3086 50.904 47.8886 49.104 47.8886 47.064C47.8886 45.024 48.2966 43.236 49.1126 41.7C49.9526 40.14 51.1166 38.94 52.6046 38.1C54.1166 37.26 55.8446 36.84 57.7886 36.84C59.6606 36.84 61.3286 37.248 62.7926 38.064C64.2566 38.88 65.3966 40.032 66.2126 41.52C67.0286 42.984 67.4366 44.676 67.4366 46.596ZM63.1526 45.3C63.1286 43.788 62.5886 42.576 61.5326 41.664C60.4766 40.752 59.1686 40.296 57.6086 40.296C56.1926 40.296 54.9806 40.752 53.9726 41.664C52.9646 42.552 52.3646 43.764 52.1726 45.3H63.1526ZM79.9714 46.956L86.3794 57H81.7354L77.4514 50.268L73.4194 57H69.1354L75.5434 47.244L69.1354 37.164H73.7794L78.0634 43.896L82.0954 37.164H86.3794L79.9714 46.956ZM94.2282 40.512V51.492C94.2282 52.236 94.3962 52.776 94.7322 53.112C95.0922 53.424 95.6922 53.58 96.5322 53.58H99.0522V57H95.8122C93.9642 57 92.5482 56.568 91.5642 55.704C90.5802 54.84 90.0882 53.436 90.0882 51.492V40.512H87.7482V37.164H90.0882V32.232H94.2282V37.164H99.0522V40.512H94.2282ZM128.35 31.98V35.328H121.69V57H117.586V35.328H110.89V31.98H128.35ZM136.611 40.044C137.211 39.036 138.003 38.256 138.987 37.704C139.995 37.128 141.183 36.84 142.551 36.84V41.088H141.507C139.899 41.088 138.675 41.496 137.835 42.312C137.019 43.128 136.611 44.544 136.611 46.56V57H132.507V37.164H136.611V40.044ZM144.955 46.992C144.955 45 145.363 43.236 146.179 41.7C147.019 40.164 148.147 38.976 149.563 38.136C151.003 37.272 152.587 36.84 154.315 36.84C155.875 36.84 157.231 37.152 158.383 37.776C159.559 38.376 160.495 39.132 161.191 40.044V37.164H165.331V57H161.191V54.048C160.495 54.984 159.547 55.764 158.347 56.388C157.147 57.012 155.779 57.324 154.243 57.324C152.539 57.324 150.979 56.892 149.563 56.028C148.147 55.14 147.019 53.916 146.179 52.356C145.363 50.772 144.955 48.984 144.955 46.992ZM161.191 47.064C161.191 45.696 160.903 44.508 160.327 43.5C159.775 42.492 159.043 41.724 158.131 41.196C157.219 40.668 156.235 40.404 155.179 40.404C154.123 40.404 153.139 40.668 152.227 41.196C151.315 41.7 150.571 42.456 149.995 43.464C149.443 44.448 149.167 45.624 149.167 46.992C149.167 48.36 149.443 49.56 149.995 50.592C150.571 51.624 151.315 52.416 152.227 52.968C153.163 53.496 154.147 53.76 155.179 53.76C156.235 53.76 157.219 53.496 158.131 52.968C159.043 52.44 159.775 51.672 160.327 50.664C160.903 49.632 161.191 48.432 161.191 47.064ZM180.729 36.84C182.289 36.84 183.681 37.164 184.905 37.812C186.153 38.46 187.125 39.42 187.821 40.692C188.517 41.964 188.865 43.5 188.865 45.3V57H184.797V45.912C184.797 44.136 184.353 42.78 183.465 41.844C182.577 40.884 181.365 40.404 179.829 40.404C178.293 40.404 177.069 40.884 176.157 41.844C175.269 42.78 174.825 44.136 174.825 45.912V57H170.721V37.164H174.825V39.432C175.497 38.616 176.349 37.98 177.381 37.524C178.437 37.068 179.553 36.84 180.729 36.84ZM201.3 57.324C199.74 57.324 198.336 57.048 197.088 56.496C195.864 55.92 194.892 55.152 194.172 54.192C193.452 53.208 193.068 52.116 193.02 50.916H197.268C197.34 51.756 197.736 52.464 198.456 53.04C199.2 53.592 200.124 53.868 201.228 53.868C202.38 53.868 203.268 53.652 203.892 53.22C204.54 52.764 204.864 52.188 204.864 51.492C204.864 50.748 204.504 50.196 203.784 49.836C203.088 49.476 201.972 49.08 200.436 48.648C198.948 48.24 197.736 47.844 196.8 47.46C195.864 47.076 195.048 46.488 194.352 45.696C193.68 44.904 193.344 43.86 193.344 42.564C193.344 41.508 193.656 40.548 194.28 39.684C194.904 38.796 195.792 38.1 196.944 37.596C198.12 37.092 199.464 36.84 200.976 36.84C203.232 36.84 205.044 37.416 206.412 38.568C207.804 39.696 208.548 41.244 208.644 43.212H204.54C204.468 42.324 204.108 41.616 203.46 41.088C202.812 40.56 201.936 40.296 200.832 40.296C199.752 40.296 198.924 40.5 198.348 40.908C197.772 41.316 197.484 41.856 197.484 42.528C197.484 43.056 197.676 43.5 198.06 43.86C198.444 44.22 198.912 44.508 199.464 44.724C200.016 44.916 200.832 45.168 201.912 45.48C203.352 45.864 204.528 46.26 205.44 46.668C206.376 47.052 207.18 47.628 207.852 48.396C208.524 49.164 208.872 50.184 208.896 51.456C208.896 52.584 208.584 53.592 207.96 54.48C207.336 55.368 206.448 56.064 205.296 56.568C204.168 57.072 202.836 57.324 201.3 57.324ZM221.647 40.512H217.975V57H213.835V40.512H211.495V37.164H213.835V35.76C213.835 33.48 214.435 31.824 215.635 30.792C216.859 29.736 218.767 29.208 221.359 29.208V32.628C220.111 32.628 219.235 32.868 218.731 33.348C218.227 33.804 217.975 34.608 217.975 35.76V37.164H221.647V40.512ZM233.888 57.324C232.016 57.324 230.324 56.904 228.812 56.064C227.3 55.2 226.112 54 225.248 52.464C224.384 50.904 223.952 49.104 223.952 47.064C223.952 45.048 224.396 43.26 225.284 41.7C226.172 40.14 227.384 38.94 228.92 38.1C230.456 37.26 232.172 36.84 234.068 36.84C235.964 36.84 237.68 37.26 239.216 38.1C240.752 38.94 241.964 40.14 242.852 41.7C243.74 43.26 244.184 45.048 244.184 47.064C244.184 49.08 243.728 50.868 242.816 52.428C241.904 53.988 240.656 55.2 239.072 56.064C237.512 56.904 235.784 57.324 233.888 57.324ZM233.888 53.76C234.944 53.76 235.928 53.508 236.84 53.004C237.776 52.5 238.532 51.744 239.108 50.736C239.684 49.728 239.972 48.504 239.972 47.064C239.972 45.624 239.696 44.412 239.144 43.428C238.592 42.42 237.86 41.664 236.948 41.16C236.036 40.656 235.052 40.404 233.996 40.404C232.94 40.404 231.956 40.656 231.044 41.16C230.156 41.664 229.448 42.42 228.92 43.428C228.392 44.412 228.128 45.624 228.128 47.064C228.128 49.2 228.668 50.856 229.748 52.032C230.852 53.184 232.232 53.76 233.888 53.76ZM252.345 40.044C252.945 39.036 253.737 38.256 254.721 37.704C255.729 37.128 256.917 36.84 258.285 36.84V41.088H257.241C255.633 41.088 254.409 41.496 253.569 42.312C252.753 43.128 252.345 44.544 252.345 46.56V57H248.241V37.164H252.345V40.044ZM286.069 36.84C287.629 36.84 289.021 37.164 290.245 37.812C291.493 38.46 292.465 39.42 293.161 40.692C293.881 41.964 294.241 43.5 294.241 45.3V57H290.173V45.912C290.173 44.136 289.729 42.78 288.841 41.844C287.953 40.884 286.741 40.404 285.205 40.404C283.669 40.404 282.445 40.884 281.533 41.844C280.645 42.78 280.201 44.136 280.201 45.912V57H276.133V45.912C276.133 44.136 275.689 42.78 274.801 41.844C273.913 40.884 272.701 40.404 271.165 40.404C269.629 40.404 268.405 40.884 267.493 41.844C266.605 42.78 266.161 44.136 266.161 45.912V57H262.057V37.164H266.161V39.432C266.833 38.616 267.685 37.98 268.717 37.524C269.749 37.068 270.853 36.84 272.029 36.84C273.613 36.84 275.029 37.176 276.277 37.848C277.525 38.52 278.485 39.492 279.157 40.764C279.757 39.564 280.693 38.616 281.965 37.92C283.237 37.2 284.605 36.84 286.069 36.84Z" fill="#FC4B2F"/>
<line x1="2" y1="87.934" x2="2" y2="52.934" stroke="#FC4B2F" stroke-width="4"/>
<line y1="85.934" x2="35" y2="85.934" stroke="#FC4B2F" stroke-width="4"/>
<line x1="321" y1="0.06604" x2="321" y2="35.066" stroke="#FC4B2F" stroke-width="4"/>
<line x1="323" y1="2.06604" x2="288" y2="2.06604" stroke="#FC4B2F" stroke-width="4"/>
</svg>
