<svg width="27" height="28" viewBox="0 0 27 28" fill="none" xmlns="http://www.w3.org/2000/svg">
  <path
    d="M19.7979 17.9143H18.5467L18.1033 17.4867C20.0038 15.2695 20.9857 12.2445 20.4472 9.0295C19.7029 4.62668 16.0286 1.11075 11.5941 0.572274C4.89478 -0.251276 -0.743373 5.38687 0.0801784 12.0861C0.618654 16.5206 4.13458 20.1949 8.53741 20.9393C11.7524 21.4778 14.7774 20.4959 16.9946 18.5954L17.4223 19.0388V20.29L24.1532 27.0209C24.8025 27.6702 25.8637 27.6702 26.513 27.0209C27.1623 26.3716 27.1623 25.3105 26.513 24.6611L19.7979 17.9143ZM10.2954 17.9143C6.35184 17.9143 3.16849 14.731 3.16849 10.7875C3.16849 6.84393 6.35184 3.66059 10.2954 3.66059C14.2389 3.66059 17.4223 6.84393 17.4223 10.7875C17.4223 14.731 14.2389 17.9143 10.2954 17.9143Z"
    fill="#7F8596" />
</svg>
